<?xml version="1.0" encoding="UTF-8"?>
<svg width="29px" height="26px" viewBox="0 0 29 26" version="1.1" xmlns="http://www.w3.org/2000/svg" xmlns:xlink="http://www.w3.org/1999/xlink">
    <!-- Generator: Sketch 47.1 (45422) - http://www.bohemiancoding.com/sketch -->
    <title>插图-响应式</title>
    <desc>Created with Sketch.</desc>
    <defs></defs>
    <g id="首页" stroke="none" stroke-width="1" fill="none" fill-rule="evenodd">
        <g transform="translate(-298.000000, -1108.000000)" id="What-can-Pro-do-for-you" fill-rule="nonzero" fill="#1AC44D">
            <g transform="translate(151.000000, 0.000000)">
                <g id="4.响应式" transform="translate(54.000000, 1058.000000)">
                    <g id="插图-响应式" transform="translate(93.000000, 50.000000)">
                        <path d="M16,9.07142857 L4.828125,9.07142857 C3.81757812,9.07142857 3,10.1046317 3,11.3816964 L3,23.1897321 C3,24.4667969 3.81757812,25.5 4.828125,25.5 L18.828125,25.5 L27,25.5 C28.1045695,25.5 29,24.6045695 29,23.5 L29,4.5 C29,3.3954305 28.1045695,2.5 27,2.5 L18,2.5 C16.8954305,2.5 16,3.3954305 16,4.5 L16,4.5 L16,9.07142857 Z" id="Combined-Shape" fill-opacity="0.3"></path>
                        <path d="M18.484375,22.1785714 C18.484375,21.7242188 18.1212891,21.3571429 17.671875,21.3571429 L14.625,21.3571429 L13.0253906,21.3571429 L13.0101562,21.3571429 L0.8125,21.3571429 C0.363085937,21.3571429 0,21.7242188 0,22.1785714 C0,22.6329241 0.363085937,23 0.8125,23 L17.671875,23 C18.1212891,23 18.484375,22.6329241 18.484375,22.1785714 Z" id="Shape"></path>
                        <path d="M1.828125,19.7142857 L16.65625,19.7142857 C17.6667969,19.7142857 18.484375,18.8877232 18.484375,17.8660714 L18.484375,8.41964286 C18.484375,7.39799107 17.6667969,6.57142857 16.65625,6.57142857 L1.828125,6.57142857 C0.817578125,6.57142857 0,7.39799107 0,8.41964286 L0,17.8660714 C0,18.8877232 0.817578125,19.7142857 1.828125,19.7142857 Z M1.625,8.21428571 L16.859375,8.21428571 L16.859375,18.0714286 L1.625,18.0714286 L1.625,8.21428571 Z" id="Shape"></path>
                        <path d="M24.171875,0 L14.828125,0 C13.8175781,0 13,0.8265625 13,1.84821429 L13,4.10714286 C13,4.56149554 13.3630859,4.92857143 13.8125,4.92857143 C14.2619141,4.92857143 14.625,4.56149554 14.625,4.10714286 L14.625,1.64285714 L24.375,1.64285714 L24.375,16.4285714 L21.125,16.4285714 C20.6755859,16.4285714 20.3125,16.7956473 20.3125,17.25 C20.3125,17.7043527 20.6755859,18.0714286 21.125,18.0714286 L24.375,18.0714286 L24.375,21.3571429 L20.9726562,21.3571429 C20.9802734,21.3571429 20.9878906,21.3622768 20.9929687,21.3674107 C20.6070312,21.4315848 20.3125,21.7704241 20.3125,22.1785714 C20.3125,22.5867187 20.6070312,22.925558 20.9929687,22.9897321 C20.9878906,22.997433 20.9802734,23 20.9726562,23 L24.171875,23 C25.1824219,23 26,22.1734375 26,21.1517857 L26,1.84821429 C26,0.8265625 25.1824219,0 24.171875,0 Z" id="Shape"></path>
                        <ellipse id="Oval" cx="19.9824219" cy="19.7142857" rx="1" ry="1"></ellipse>
                    </g>
                </g>
            </g>
        </g>
    </g>
</svg>