<?xml version="1.0" encoding="UTF-8"?>
<svg width="26px" height="26px" viewBox="0 0 26 26" version="1.1" xmlns="http://www.w3.org/2000/svg" xmlns:xlink="http://www.w3.org/1999/xlink">
    <!-- Generator: Sketch 47.1 (45422) - http://www.bohemiancoding.com/sketch -->
    <title>插图-国际化</title>
    <desc>Created with Sketch.</desc>
    <defs></defs>
    <g id="首页" stroke="none" stroke-width="1" fill="none" fill-rule="evenodd">
        <g transform="translate(-1116.000000, -1107.000000)" id="What-can-Pro-do-for-you">
            <g transform="translate(151.000000, 0.000000)">
                <g id="6.国际化" transform="translate(870.000000, 1058.000000)">
                    <g id="插图-国际化" transform="translate(95.000000, 49.000000)">
                        <circle id="Oval-6" fill-opacity="0.2" fill="#722ED1" cx="15" cy="15" r="11"></circle>
                        <path d="M12,0 C5.371875,0 0,5.371875 0,12 C0,18.628125 5.371875,24 12,24 C18.628125,24 24,18.628125 24,12 C24,5.371875 18.628125,0 12,0 Z M9.24375,2.06015625 C8.52890625,2.66484375 7.8890625,3.49453125 7.35703125,4.5 C6.871875,4.25390625 6.4078125,3.97265625 5.96953125,3.65625 L5.93671875,3.65625 C6.9234375,2.9390625 8.0390625,2.39296875 9.24375,2.06015625 Z M4.6453125,4.771875 C5.2734375,5.259375 5.953125,5.6859375 6.6703125,6.04453125 C6.15234375,7.453125 5.8125,9.0796875 5.70703125,10.828125 L1.753125,10.828125 C2.01796875,8.4796875 3.07265625,6.3703125 4.6453125,4.771875 Z M1.69921875,12.515625 L5.67890625,12.515625 C5.73046875,14.5148437 6.0890625,16.3734375 6.6703125,17.9554688 C5.95078125,18.3117188 5.2734375,18.740625 4.6453125,19.228125 C2.92734375,17.4820312 1.828125,15.1265625 1.69921875,12.515625 Z M5.9390625,20.34375 L5.971875,20.34375 C6.41015625,20.0273438 6.871875,19.7460938 7.359375,19.5 C7.89375,20.5054687 8.53125,21.3351563 9.24609375,21.9398438 C8.0390625,21.6070312 6.9234375,21.0609375 5.9390625,20.34375 Z M11.2734375,21.2367188 C10.35,20.94375 9.51796875,20.1023438 8.859375,18.8859375 C9.628125,18.6398438 10.4367188,18.4828125 11.2734375,18.4242188 L11.2734375,21.2367188 Z M11.2734375,16.7320312 C10.2,16.7953125 9.16640625,17.0015625 8.18671875,17.3296875 C7.7109375,15.9492188 7.415625,14.2992187 7.36640625,12.515625 L11.2734375,12.515625 L11.2734375,16.7320312 Z M11.2734375,10.828125 L7.39453125,10.828125 C7.490625,9.2953125 7.76953125,7.8796875 8.184375,6.6703125 C9.1640625,6.9984375 10.1976563,7.20234375 11.2710937,7.26796875 L11.2710937,10.828125 L11.2734375,10.828125 Z M11.2734375,5.57578125 C10.4367188,5.5171875 9.628125,5.36015625 8.859375,5.1140625 C9.51796875,3.8953125 10.35,3.05390625 11.2734375,2.76328125 L11.2734375,5.57578125 L11.2734375,5.57578125 Z M22.246875,10.828125 L18.2929688,10.828125 C18.1875,9.0796875 17.8476562,7.453125 17.3296875,6.04453125 C18.0492188,5.68828125 18.7265625,5.259375 19.3546875,4.771875 C20.9273437,6.3703125 21.9820312,8.4796875 22.246875,10.828125 L22.246875,10.828125 Z M18.0609375,3.65625 L18.028125,3.65625 C17.5898438,3.97265625 17.128125,4.25390625 16.640625,4.5 C16.10625,3.49453125 15.46875,2.66484375 14.7539062,2.06015625 C15.9609375,2.39296875 17.0765625,2.9390625 18.0609375,3.65625 Z M12.9609375,2.85 C13.790625,3.2015625 14.5382812,4.00078125 15.140625,5.1140625 C14.4445312,5.33671875 13.7132813,5.48671875 12.9609375,5.55703125 L12.9609375,2.85 Z M12.9609375,7.2515625 C13.95,7.17421875 14.90625,6.975 15.8132813,6.6703125 C16.2304688,7.8796875 16.509375,9.2953125 16.603125,10.828125 L12.9609375,10.828125 L12.9609375,7.2515625 Z M12.9609375,12.515625 L16.6335938,12.515625 C16.584375,14.2992187 16.2890625,15.9492188 15.8132813,17.3296875 C14.90625,17.025 13.95,16.828125 12.9609375,16.7484375 L12.9609375,12.515625 Z M12.9609375,21.15 L12.9609375,18.4429687 C13.7132813,18.5132812 14.4421875,18.6632812 15.140625,18.8859375 C14.5382812,19.9992187 13.790625,20.7984375 12.9609375,21.15 Z M14.75625,21.9398438 C15.4710937,21.3351563 16.1109375,20.5054687 16.6429687,19.5 C17.128125,19.7460938 17.5921875,20.0273438 18.0304687,20.34375 L18.0632812,20.34375 C17.0765625,21.0609375 15.9609375,21.6070312 14.75625,21.9398438 Z M19.3546875,19.228125 C18.7265625,18.740625 18.046875,18.3140625 17.3296875,17.9554688 C17.9132812,16.3734375 18.2695312,14.5125 18.3210937,12.515625 L22.3007812,12.515625 C22.171875,15.1265625 21.0726563,17.4820312 19.3546875,19.228125 Z" id="Shape" fill="#8E58DA" fill-rule="nonzero"></path>
                    </g>
                </g>
            </g>
        </g>
    </g>
</svg>