<?xml version="1.0" encoding="UTF-8"?>
<svg width="28px" height="25px" viewBox="0 0 28 25" version="1.1" xmlns="http://www.w3.org/2000/svg" xmlns:xlink="http://www.w3.org/1999/xlink">
    <!-- Generator: Sketch 47.1 (45422) - http://www.bohemiancoding.com/sketch -->
    <title>插图-测试</title>
    <desc>Created with Sketch.</desc>
    <defs></defs>
    <g id="首页" stroke="none" stroke-width="1" fill="none" fill-rule="evenodd">
        <g transform="translate(-1116.000000, -1379.000000)" id="What-can-Pro-do-for-you">
            <g transform="translate(151.000000, 0.000000)">
                <g id="9.UI-测试" transform="translate(870.000000, 1328.000000)">
                    <g id="插图-测试" transform="translate(95.000000, 51.000000)">
                        <g id="测试">
                            <path d="M25.7857143,3.5 C26.73125,3.5 27.5,4.28476562 27.5,5.25 L27.5,19.25 C27.5,20.2152344 26.73125,21 25.7857143,21 L5.21428571,21 C4.26875,21 3.5,20.2152344 3.5,19.25 L3.5,5.25 C3.5,4.28476562 4.26875,3.5 5.21428571,3.5 L25.7857143,3.5 Z M26.6428571,22.75 C27.1169643,22.75 27.5,23.1410156 27.5,23.625 C27.5,24.1089844 27.1169643,24.5 26.6428571,24.5 L4.35714286,24.5 C3.88303571,24.5 3.5,24.1089844 3.5,23.625 C3.5,23.1410156 3.88303571,22.75 4.35714286,22.75 L26.6428571,22.75 Z" id="Combined-Shape" fill-opacity="0.4" fill="#1890FF" fill-rule="nonzero"></path>
                            <path d="M1.71428571,15.75 L22.2857143,15.75 L22.2857143,1.75 L1.71428571,1.75 L1.71428571,15.75 Z M7.84285714,8.71445313 C8.15089286,8.4328125 8.625,8.45742188 8.90089286,8.771875 L10.8053571,10.9320312 L16.1223214,4.90546875 C16.3982143,4.59101563 16.875,4.56640625 17.1803571,4.84804687 C17.4883929,5.1296875 17.5125,5.61640625 17.2366071,5.928125 L11.3598214,12.5945313 C11.0839286,12.9089844 10.6071429,12.9335938 10.3017857,12.6519531 C10.2535714,12.6082031 10.2107143,12.55625 10.1758929,12.5042969 L7.78928571,9.79726563 C7.51071429,9.4828125 7.53482143,8.99882813 7.84285714,8.71445313 Z" id="Shape"></path>
                            <path d="M22.2857143,0 L1.71428571,0 C0.76875,0 0,0.784765625 0,1.75 L0,15.75 C0,16.7152344 0.76875,17.5 1.71428571,17.5 L22.2857143,17.5 C23.23125,17.5 24,16.7152344 24,15.75 L24,1.75 C24,0.784765625 23.23125,0 22.2857143,0 Z M22.2857143,15.75 L1.71428571,15.75 L1.71428571,1.75 L22.2857143,1.75 L22.2857143,15.75 Z" id="Shape" fill="#1890FF" fill-rule="nonzero"></path>
                            <path d="M23.1428571,19.25 L0.857142857,19.25 C0.383035714,19.25 0,19.6410156 0,20.125 C0,20.6089844 0.383035714,21 0.857142857,21 L23.1428571,21 C23.6169643,21 24,20.6089844 24,20.125 C24,19.6410156 23.6169643,19.25 23.1428571,19.25 Z" id="Shape" fill="#1890FF" fill-rule="nonzero"></path>
                            <path d="M10.1758929,12.5042969 C10.2107143,12.5589844 10.2508929,12.6082031 10.3017857,12.6519531 C10.6098214,12.9335938 11.0839286,12.9089844 11.3598214,12.5945313 L17.2392857,5.928125 C17.5151786,5.61367188 17.4910714,5.1296875 17.1830357,4.84804688 C16.875,4.56640625 16.4008929,4.59101563 16.125,4.90546875 L10.8080357,10.9320313 L8.90357143,8.771875 C8.62767857,8.45742188 8.15089286,8.4328125 7.84553571,8.71445313 C7.5375,8.99609375 7.51339286,9.4828125 7.78928571,9.79453125 L10.1758929,12.5042969 Z" id="Shape" fill="#1890FF" fill-rule="nonzero"></path>
                        </g>
                    </g>
                </g>
            </g>
        </g>
    </g>
</svg>