<svg xmlns="http://www.w3.org/2000/svg" viewBox="0 0 14 14"><path d="M13.9 13.1c0-.1 0-.1-.1-.1l-2.5-4.1c1.6-.8 2.7-2.4 2.7-4.2C14 2.1 11.8 0 9.1 0H3.9C3 0 2.4.6 2.4 1.4v.4H.7c-.4 0-.7.3-.7.7v10.9c0 .4.2.6.6.6h12.9c.3 0 .6-.2.6-.5-.1-.2-.1-.3-.2-.4zM3.5 8V2.9h5.2c1 0 1.9.8 1.9 1.8s-.8 1.8-1.9 1.8H6.5c-.1 0-.1 0-.2.1-.3.1-.3.5-.2.7L8.3 11H3.5V8zm-2.4 4.9v-10h1.2v8.6c0 .3.2.5.6.5h6.3c.3 0 .6-.2.6-.5 0-.1 0-.3-.1-.4L7.6 7.6h1.1c1.6 0 3-1.3 3-2.9 0-1.6-1.3-2.9-3-2.9H3.5v-.4c0-.2.2-.4.4-.4h5.2c2.1 0 3.7 1.6 3.7 3.6 0 1.5-1 2.8-2.4 3.4-.1 0-.1 0-.2.1-.2.2-.3.5-.1.7l2.4 4-11.4.1z" fill="#fff"/></svg>