<?xml version="1.0" encoding="UTF-8"?>
<svg width="284px" height="184px" viewBox="0 0 284 184" version="1.1" xmlns="http://www.w3.org/2000/svg" xmlns:xlink="http://www.w3.org/1999/xlink">
    <!-- Generator: Sketch 61.2 (89653) - https://sketch.com -->
    <title>编组 19</title>
    <desc>Created with Sketch.</desc>
    <g id="页面-1" stroke="none" stroke-width="1" fill="none" fill-rule="evenodd">
        <g id="资源" transform="translate(-116.000000, -1085.000000)">
            <g id="编组-19" transform="translate(116.000000, 1085.000000)">
                <path d="M2,0 L282,0 C283.104569,-2.02906125e-16 284,0.8954305 284,2 L284,184 L284,184 L0,184 L0,2 C-1.3527075e-16,0.8954305 0.8954305,2.02906125e-16 2,0 Z" id="蒙版备份-8" fill="#262626"></path>
                <g id="编组-16" transform="translate(109.000000, 56.000000)">
                    <path d="M27.6995015,61 C17.6043076,61 8.6546488,56.095381 3.10338303,48.5390009 L9.67522656,48.5381683 C14.2892689,53.148679 20.6614043,56 27.6995015,56 C34.7375986,56 41.109734,53.148679 45.7237763,48.5381683 L52.2956199,48.5390009 C46.7443541,56.095381 37.7946954,61 27.6995015,61 Z M27.6995015,0 C39.2283456,0 49.2631896,6.39657474 54.4486119,15.8343027 L48.5625943,15.8340432 C43.947654,9.28110667 36.3235307,5 27.6995015,5 C19.0754722,5 11.4513489,9.28110667 6.83640857,15.8340432 L0.950390965,15.8343027 C6.13581333,6.39657474 16.1706574,0 27.6995015,0 Z" id="形状结合" fill="#F81B22" fill-rule="nonzero"></path>
                    <path d="M7,18.6728232 L14.0721605,18.6728232 C17.8576122,18.6728232 20.9412592,21.6776066 21.0681015,25.4321734 L21.0721605,25.6728232 L21.0721605,32.8176556 C21.0721605,36.6031073 18.0673771,39.6867543 14.3128103,39.8135966 L14.0721605,39.8176556 L8.05147666,39.8176556 L8.05147666,33 L13.5436377,33 C14.0564735,33 14.4791448,32.6139598 14.5369099,32.1166211 L14.5436377,32 L14.5436377,26.44414 C14.5436377,25.9313041 14.1575975,25.5086328 13.6602588,25.4508677 L13.5436377,25.44414 L7.96062182,25.44414 C7.44778598,25.44414 7.02511466,25.8301802 6.96734955,26.3275188 L6.96062182,26.44414 L6.96062182,44.5942255 L3.87245791e-13,44.5942255 L3.87245791e-13,25.6728232 C3.87245791e-13,21.8873715 3.00478338,18.8037245 6.75935025,18.6768822 L7,18.6728232 L14.0721605,18.6728232 L7,18.6728232 Z M30.2032788,38.6627981 C30.7555636,38.6627981 31.2032788,39.1105134 31.2032788,39.6627981 C31.2032788,39.8791683 31.1331009,40.089702 31.0032788,40.2627981 L28.5032788,43.5961315 C28.171908,44.0379593 27.5451066,44.1275023 27.1032788,43.7961315 C27.0274732,43.7392772 26.9601331,43.6719371 26.9032788,43.5961315 L24.4032788,40.2627981 C24.071908,39.8209703 24.161451,39.194169 24.6032788,38.8627981 C24.776375,38.732976 24.9869086,38.6627981 25.2032788,38.6627981 L30.2032788,38.6627981 Z M41.1995015,19 L41.1995015,33 C41.1995015,33.5522847 41.6472167,34 42.1995015,34 L47.1995015,34 C47.7517862,34 48.1995015,33.5522847 48.1995015,33 L48.1995015,19 L55.1995015,19 L55.1995015,34 C55.1995015,37.8659932 52.0654947,41 48.1995015,41 L41.1995015,41 C37.3335082,41 34.1995015,37.8659932 34.1995015,34 L34.1995015,19 L41.1995015,19 Z M30.1995015,19 C30.7517862,19 31.1995015,19.4477153 31.1995015,20 L31.1995015,37 C31.1995015,37.5522847 30.7517862,38 30.1995015,38 L25.1995015,38 C24.6472167,38 24.1995015,37.5522847 24.1995015,37 L24.1995015,20 C24.1995015,19.4477153 24.6472167,19 25.1995015,19 L30.1995015,19 Z M30.1995015,14 C30.7517862,14 31.1995015,14.4477153 31.1995015,15 L31.1995015,17.3690146 C31.1995015,17.9212994 30.7517862,18.3690146 30.1995015,18.3690146 L25.1995015,18.3690146 C24.6472167,18.3690146 24.1995015,17.9212994 24.1995015,17.3690146 L24.1995015,15 C24.1995015,14.4477153 24.6472167,14 25.1995015,14 L30.1995015,14 Z" id="形状" fill="#F81B22"></path>
                    <polygon id="矩形" fill="#262626" points="36.1995015 41.8171339 45.9263937 42.8985736 55.300045 39 65.7995015 39 65.7995015 72.6 36.1995015 72.6"></polygon>
                    <g id="编组-3" transform="translate(39.799501, 41.400000)">
                        <polygon id="矩形" fill="#0170FE" points="0 5.93590365 12.96 12.129773 12.96 29.409773 0 23.2159037"></polygon>
                        <polygon id="矩形备份-24" fill="#17C5FF" transform="translate(19.440000, 17.672838) scale(-1, 1) translate(-19.440000, -17.672838) " points="12.96 5.93590365 25.92 12.129773 25.92 29.409773 12.96 23.2159037"></polygon>
                        <polygon id="路径-194" fill="#FFD75A" points="-7.64388552e-15 5.93590365 12.96 12.129773 25.92 5.93590365 12.96 9.08606523e-13"></polygon>
                    </g>
                </g>
            </g>
        </g>
    </g>
</svg>