<?xml version="1.0" encoding="UTF-8"?>
<svg width="284px" height="184px" viewBox="0 0 284 184" version="1.1" xmlns="http://www.w3.org/2000/svg" xmlns:xlink="http://www.w3.org/1999/xlink">
    <!-- Generator: Sketch 59.1 (86144) - https://sketch.com -->
    <title>编组 21</title>
    <desc>Created with Sketch.</desc>
    <defs>
        <rect id="path-1" x="0" y="0" width="39.6" height="26" rx="0.576"></rect>
    </defs>
    <g id="页面-1" stroke="none" stroke-width="1" fill="none" fill-rule="evenodd">
        <g id="资源" transform="translate(-424.000000, -783.000000)">
            <g id="编组-21" transform="translate(424.000000, 783.000000)">
                <path d="M2,0 L282,0 C283.104569,-2.02906125e-16 284,0.8954305 284,2 L284,184 L284,184 L0,184 L0,2 C-1.3527075e-16,0.8954305 0.8954305,2.02906125e-16 2,0 Z" id="蒙版备份-5" fill="#3054EB" fill-rule="nonzero"></path>
                <g id="编组-14备份" transform="translate(99.000000, 49.000000)">
                    <rect id="矩形备份-31" x="0" y="0" width="86.4" height="86.4"></rect>
                    <g id="编组-10" transform="translate(19.000000, 6.000000)">
                        <rect id="矩形" fill="#8AA1FF" x="0" y="0" width="49.2" height="74"></rect>
                        <g id="编组-13" transform="translate(4.800000, 10.200000)">
                            <g id="位图">
                                <mask id="mask-2" fill="white">
                                    <use xlink:href="#path-1"></use>
                                </mask>
                                <use id="蒙版" fill="#3054EB" xlink:href="#path-1"></use>
                            </g>
                            <rect id="矩形" fill="#5D7CFF" x="-7.28306304e-13" y="29.8" width="39.6" height="3.6"></rect>
                            <rect id="矩形备份-9" fill="#5D7CFF" x="-7.28306304e-13" y="37" width="39.6" height="3.6"></rect>
                            <rect id="矩形" fill="#5D7CFF" x="-7.28306304e-13" y="44.2" width="39.6" height="3.6"></rect>
                        </g>
                        <polygon id="矩形" fill="#C4CFFF" points="-2.79669621e-12 9.09494702e-13 49.2 9.09494702e-13 49.2 6 -2.79669621e-12 6"></polygon>
                        <rect id="矩形备份-25" fill="#EBEFFF" x="18" y="65.2" width="12" height="3.6"></rect>
                    </g>
                </g>
                <g id="编组-15" transform="translate(137.000000, 69.000000)">
                    <path d="M9.5,19 L1.9,19 C0.898356295,19 0.0777431342,18.2249161 0.00521144961,17.2417992 L0,17.1 L0,1.9 L0.00521144961,1.75820077 C0.0777431342,0.775083901 0.898356295,0 1.9,0 C2.90164371,0 3.72225687,0.775083901 3.79478855,1.75820077 L3.8,1.9 L3.8,15.19905 L9.5,15.2 C10.5016437,15.2 11.3222569,15.9750839 11.3947886,16.9582008 L11.4,17.1 C11.4,18.1016437 10.6249161,18.9222569 9.64179923,18.9947886 L9.5,19 L1.9,19 L9.5,19 Z" id="路径" fill="#FFFFFF"></path>
                    <circle id="椭圆形备份-12" stroke="#FFFFFF" stroke-width="0.95" cx="9.5" cy="7.6" r="1.9"></circle>
                </g>
            </g>
        </g>
    </g>
</svg>